<?xml version="1.0" standalone="no"?>
<!DOCTYPE svg PUBLIC "-//W3C//DTD SVG 20010904//EN"
 "http://www.w3.org/TR/2001/REC-SVG-20010904/DTD/svg10.dtd">
<svg version="1.0" xmlns="http://www.w3.org/2000/svg"
 width="192.000000pt" height="192.000000pt" viewBox="0 0 192.000000 192.000000"
 preserveAspectRatio="xMidYMid meet">

<g transform="translate(0.000000,192.000000) scale(0.100000,-0.100000)"
fill="#000000" stroke="none">
<path d="M847 1730 c-135 -21 -280 -87 -389 -176 -191 -157 -301 -435 -270
-680 69 -530 608 -836 1095 -620 119 52 242 156 316 264 55 82 77 129 107 229
36 120 39 290 6 405 -65 230 -204 402 -409 506 -117 60 -325 92 -456 72z m223
-124 c90 -16 181 -52 246 -97 l48 -32 -50 -45 c-27 -25 -72 -61 -101 -80 l-52
-34 -57 62 c-64 69 -142 131 -229 184 -53 31 -56 35 -34 40 77 17 140 18 229
2z m-305 -122 c80 -40 199 -129 246 -181 37 -43 34 -46 -74 -70 -152 -33 -351
-14 -490 46 l-48 21 30 42 c36 52 112 127 166 163 48 32 70 29 170 -21z m742
-164 c44 -65 76 -139 92 -211 l9 -39 -108 0 c-59 0 -127 -3 -152 -6 l-45 -6
-37 78 c-20 42 -33 80 -29 84 4 4 37 27 73 52 36 25 81 62 100 82 19 20 39 35
44 33 6 -2 30 -32 53 -67z m-1068 -166 c166 -64 380 -76 551 -31 52 14 103 28
112 32 13 5 23 -6 47 -54 17 -33 31 -65 31 -70 0 -6 -33 -26 -74 -45 -146 -67
-285 -180 -371 -301 -42 -58 -116 -201 -128 -244 -3 -12 -10 -21 -15 -21 -22
0 -138 118 -183 188 -104 158 -132 359 -77 545 9 28 15 36 27 31 9 -3 45 -17
80 -30z m1169 -212 c10 -7 9 -24 -2 -88 -17 -98 -51 -183 -104 -261 -52 -77
-192 -207 -192 -179 0 3 10 44 21 93 23 95 30 259 16 370 -8 59 -7 62 15 66
41 8 233 7 246 -1z m-381 -79 c15 -73 7 -253 -16 -338 -24 -89 -75 -205 -90
-205 -5 0 -44 -5 -85 -11 -84 -11 -195 -1 -279 27 -45 15 -48 18 -43 43 13 56
97 209 151 274 31 37 83 89 116 115 60 48 204 131 226 132 7 0 16 -17 20 -37z"/>
</g>
</svg>
